<?xml version="1.0" encoding="utf-8"?>
<!-- Generator: Adobe Illustrator 21.0.0, SVG Export Plug-In . SVG Version: 6.00 Build 0)  -->
<svg version="1.1" id="Layer_1" xmlns="http://www.w3.org/2000/svg" xmlns:xlink="http://www.w3.org/1999/xlink" x="0px" y="0px"
	 width="14.8px" height="14.8px" viewBox="0 0 14.8 14.8" style="enable-background:new 0 0 14.8 14.8;" xml:space="preserve">
<style type="text/css">
	.st0{fill:#A7AEB3;}
</style>
<path class="st0" d="M14.5,13.2l-3.7-3.7c0.7-1,1.1-2.2,1.1-3.5c0-3.2-2.6-5.9-5.9-5.9C2.7,0.1,0.1,2.7,0.1,6c0,3.2,2.6,5.9,5.9,5.9
	c1.2,0,2.4-0.4,3.3-1l3.8,3.8C13.1,14.6,14.5,13.2,14.5,13.2z M1.8,6c0-2.3,1.9-4.2,4.2-4.2s4.2,1.9,4.2,4.2S8.3,10.1,6,10.1
	C3.7,10.1,1.8,8.3,1.8,6z"/>
</svg>
